<?xml version="1.0" encoding="utf-8"?>
<!-- Generator: Adobe Illustrator 25.3.1, SVG Export Plug-In . SVG Version: 6.00 Build 0)  -->
<svg version="1.1" id="Layer_1" xmlns="http://www.w3.org/2000/svg" xmlns:xlink="http://www.w3.org/1999/xlink" x="0px" y="0px"
	 viewBox="0 0 486 434.7" style="enable-background:new 0 0 486 434.7;" xml:space="preserve">
<style type="text/css">
	.st0{fill:#A4A4A4;}
</style>
<path class="st0" d="M269.5,191.6c-8.5,0.8-17.1,1.1-25.5,2.6c-30,5.1-58.6,14.4-83.6,32.2c-31.5,22.5-32.2,48.6-1.3,72
	c12.3,9.3,26.2,16.5,39.3,24.7c42.5,26.6,42.4,53.4-0.2,79.7C150.2,432.2,97.3,438.3,43,432.8c-39.6-4-54.2-38.6-33.7-75.5
	c15.9-28.6,32.8-56.7,49.2-85C103.7,194.2,149,116.1,194.2,38c3.9-7,8.5-13.5,13.7-19.5C231-7.3,262-6,282.5,21.8
	c8.6,11.7,15.5,24.7,22.8,37.4c55.7,96.1,111.3,192.2,166.8,288.5c5.7,9.8,10.7,20.7,12.8,31.7c5.8,29.7-11.4,51.9-41.7,53.9
	c-21.7,1.5-43.5,1-65.2,0.8c-3.9,0-9.8-2-11.2-4.9c-1.4-2.8,1.1-8.2,3.2-11.7c5.1-8.8,11.9-16.6,16.4-25.7
	c10.8-21.9,6.9-42.2-9.7-59.9c-21.5-23-49.6-35.3-77.7-47.5c-19.5-8.5-39.6-15.7-58.9-24.5c-11.1-5.1-23.9-11.1-23.9-25.7
	s13.1-20.1,24-25.8c9.6-5,20.1-8.5,30.2-12.6L269.5,191.6z"/>
</svg>
